<?xml version="1.0" standalone="no"?>
<!DOCTYPE svg PUBLIC "-//W3C//DTD SVG 20010904//EN"
 "http://www.w3.org/TR/2001/REC-SVG-20010904/DTD/svg10.dtd">
<svg version="1.0" xmlns="http://www.w3.org/2000/svg"
 width="1920.000000pt" height="1080.000000pt" viewBox="0 0 1920.000000 1080.000000"
 preserveAspectRatio="xMidYMid meet">

<g transform="translate(0.000000,1080.000000) scale(0.100000,-0.100000)"
fill="#000000" stroke="none">
<path d="M7855 10093 c-590 -39 -1176 -220 -1690 -521 -490 -287 -912 -690
-1267 -1207 -217 -316 -393 -696 -492 -1062 -79 -292 -119 -518 -141 -795 -23
-283 -18 -492 20 -811 69 -573 268 -1121 590 -1627 220 -346 568 -723 880
-953 50 -36 108 -80 130 -96 78 -57 282 -179 425 -254 416 -218 825 -347 1300
-413 158 -21 593 -30 757 -15 362 34 755 129 1089 262 499 199 930 483 1303
859 295 297 494 568 686 934 206 394 346 866 412 1391 25 200 24 675 -1 870
-27 211 -90 515 -145 698 -236 781 -731 1484 -1400 1985 -341 257 -865 513
-1267 622 -410 111 -825 157 -1189 133z m555 -368 c564 -67 1093 -265 1555
-583 408 -281 712 -589 981 -997 180 -272 285 -487 389 -798 63 -191 94 -310
129 -506 44 -246 51 -339 50 -666 -1 -266 -4 -330 -23 -455 -47 -308 -96 -505
-190 -762 -304 -833 -918 -1518 -1716 -1916 -750 -374 -1573 -463 -2365 -256
-882 230 -1632 793 -2111 1585 -114 189 -248 484 -322 714 -197 605 -230 1287
-91 1913 258 1172 1138 2157 2289 2564 204 72 491 139 700 163 157 18 571 18
725 0z"/>
<path d="M7976 9549 c-53 -11 -189 -70 -200 -87 -3 -5 -29 -18 -58 -28 -38
-14 -70 -37 -117 -85 -54 -53 -77 -69 -123 -83 -40 -12 -73 -31 -110 -65 -29
-26 -77 -60 -106 -76 -36 -20 -63 -44 -84 -77 l-31 -48 -101 0 c-199 0 -301
-33 -382 -123 -75 -83 -99 -144 -98 -252 0 -114 22 -163 114 -256 99 -101 135
-112 380 -119 183 -5 196 -6 204 -25 20 -45 190 -154 266 -170 19 -4 75 -20
123 -36 94 -31 110 -31 216 -2 38 11 69 13 110 7 31 -5 63 -7 71 -6 8 2 98 4
200 6 209 2 226 7 320 80 30 24 71 48 91 55 20 6 63 28 95 49 l59 37 265 6
c288 6 298 8 389 67 137 90 207 260 165 401 -14 45 -34 82 -72 127 -102 124
-159 145 -387 145 -88 0 -167 2 -177 5 -9 3 -19 17 -23 32 -19 78 -149 216
-242 259 -29 14 -81 28 -115 33 -57 8 -64 12 -106 60 -100 114 -377 201 -536
169z m58 -276 c36 -172 40 -221 41 -418 0 -202 -10 -280 -40 -305 -17 -14 -23
-4 -41 63 -32 120 -124 618 -124 674 0 17 12 29 48 47 26 14 59 25 73 26 24 0
26 -5 43 -87z m363 -19 c18 -14 37 -33 42 -42 39 -73 31 -396 -13 -527 -40
-117 -80 -215 -88 -215 -5 0 -8 73 -8 163 0 254 -32 592 -61 649 -20 39 64 20
128 -28z m-708 -236 c7 -73 21 -198 32 -278 12 -80 21 -172 21 -205 0 -33 4
-64 8 -70 4 -5 13 -26 18 -45 20 -67 47 -135 65 -160 17 -24 16 -25 -10 -38
-18 -10 -45 -13 -84 -9 -79 7 -116 37 -159 129 -18 40 -39 80 -46 88 -18 22
-72 193 -90 285 -24 129 -33 223 -23 260 21 75 113 142 177 129 25 -5 33 -2
47 20 10 14 21 26 25 26 4 0 12 -60 19 -132z m980 92 c35 -18 91 -72 91 -88 0
-34 -86 -280 -91 -259 -1 4 -2 10 -3 15 -2 4 -6 34 -10 67 -12 89 -45 265 -51
276 -10 15 24 10 64 -11z m146 -152 c40 -122 44 -185 20 -299 -27 -127 -99
-234 -188 -278 l-42 -21 -3 21 c-4 22 25 62 39 53 5 -3 6 3 2 12 -5 13 -3 16
10 11 10 -4 24 1 34 12 10 10 26 21 37 24 14 6 17 14 12 35 -3 15 -3 21 0 15
3 -7 10 -13 15 -13 6 0 7 5 4 10 -3 6 3 22 14 36 11 14 23 42 27 61 4 19 9 30
13 25 3 -6 6 55 5 134 -1 95 -5 149 -12 156 -14 14 -16 28 -3 28 5 0 12 -10
16 -22z m-1543 -160 c-5 -113 -21 -153 -22 -54 0 54 15 146 25 146 0 0 -1 -42
-3 -92z m-176 -116 c1 -120 4 -142 22 -177 32 -57 29 -63 -25 -59 -27 2 -90 5
-141 8 -81 3 -97 7 -132 31 -39 27 -90 110 -90 146 0 31 37 103 68 132 41 39
101 56 207 56 l90 1 1 -138z m2218 128 c70 -16 125 -73 146 -151 18 -66 -42
-171 -113 -198 -16 -6 -106 -11 -212 -11 l-184 0 26 57 c23 50 27 74 31 185
l5 128 131 0 c72 0 149 -5 170 -10z"/>
<path d="M7613 8450 c-13 -5 -23 -12 -23 -15 0 -11 37 -4 56 10 22 17 4 20
-33 5z"/>
<path d="M7560 8416 c0 -8 5 -18 10 -21 6 -3 10 3 10 14 0 12 -4 21 -10 21 -5
0 -10 -6 -10 -14z"/>
<path d="M7592 8370 c0 -14 2 -19 5 -12 2 6 2 18 0 25 -3 6 -5 1 -5 -13z"/>
<path d="M7660 8305 c0 -5 4 -16 9 -23 6 -10 10 -10 20 2 8 10 9 16 1 21 -5 3
-10 0 -10 -7 0 -9 -3 -9 -10 2 -5 8 -10 11 -10 5z"/>
<path d="M7726 8302 c-3 -6 -1 -14 5 -17 15 -10 25 3 12 16 -7 7 -13 7 -17 1z"/>
<path d="M8822 8805 c0 -16 2 -22 5 -12 2 9 2 23 0 30 -3 6 -5 -1 -5 -18z"/>
<path d="M9079 8566 c-2 -2 -19 -6 -38 -8 -19 -2 -37 -10 -39 -17 -3 -8 0 -11
7 -7 6 4 11 0 12 -11 0 -17 1 -17 8 0 6 17 8 17 20 3 7 -9 18 -13 25 -9 6 4
37 6 68 4 64 -3 166 16 186 36 11 11 -10 13 -116 13 -71 0 -131 -2 -133 -4z"/>
<path d="M9368 8563 c7 -3 16 -2 19 1 4 3 -2 6 -13 5 -11 0 -14 -3 -6 -6z"/>
<path d="M9760 8779 c0 -5 -13 -9 -30 -9 -20 0 -30 -5 -30 -15 0 -10 10 -15
30 -15 18 0 33 -6 36 -15 8 -19 19 -19 39 1 8 9 22 14 29 11 16 -6 31 22 19
33 -13 12 -93 19 -93 9z"/>
<path d="M9880 8760 c0 -5 5 -10 11 -10 5 0 7 5 4 10 -3 6 -8 10 -11 10 -2 0
-4 -4 -4 -10z"/>
<path d="M6193 8658 c-46 -22 -49 -92 -4 -132 59 -53 153 23 116 94 -24 47
-65 61 -112 38z"/>
<path d="M9663 8610 c0 -30 2 -43 4 -27 2 15 2 39 0 55 -2 15 -4 2 -4 -28z"/>
<path d="M9758 8638 c-21 -32 -30 -88 -22 -137 9 -57 24 -41 24 26 0 49 2 54
15 43 10 -8 12 -16 6 -19 -6 -4 -11 -42 -13 -86 l-3 -80 35 3 c19 2 37 8 40
12 3 5 27 10 53 11 36 2 46 6 42 16 -2 8 0 11 5 8 6 -3 10 -1 10 5 0 6 5 8 12
4 8 -5 9 -2 3 12 -4 10 -12 47 -17 81 l-10 62 -61 3 c-56 3 -62 5 -67 28 -8
33 -33 37 -52 8z m79 -150 c-2 -13 -4 -5 -4 17 -1 22 1 32 4 23 2 -10 2 -28 0
-40z"/>
<path d="M10011 8576 c-7 -9 -11 -36 -8 -68 l3 -53 2 58 c1 36 6 56 12 52 6
-3 10 1 10 9 0 20 -4 20 -19 2z"/>
<path d="M9671 8474 c0 -11 3 -14 6 -6 3 7 2 16 -1 19 -3 4 -6 -2 -5 -13z"/>
<path d="M5847 8363 c-62 -69 -2 -171 83 -142 38 14 60 74 42 114 -20 43 -95
60 -125 28z m50 -65 c-3 -8 -6 -5 -6 6 -1 11 2 17 5 13 3 -3 4 -12 1 -19z"/>
<path d="M10194 8368 c-49 -23 -59 -105 -18 -137 37 -29 70 -26 105 8 44 44
39 100 -12 126 -32 17 -46 18 -75 3z"/>
<path d="M10471 7994 c-32 -23 -53 -77 -42 -107 11 -29 57 -67 81 -67 23 0 67
36 84 69 19 35 -1 84 -43 105 -38 20 -51 20 -80 0z"/>
<path d="M5589 7975 c-55 -36 -66 -93 -29 -133 23 -25 94 -30 121 -9 49 38 51
95 4 136 -43 37 -50 38 -96 6z m62 -39 c5 -18 4 -35 -3 -43 -7 -9 -7 -13 1
-13 6 0 11 5 11 10 0 6 5 10 10 10 18 0 11 -19 -13 -35 -26 -17 -87 -11 -87 9
0 6 10 30 22 54 26 48 48 51 59 8z"/>
<path d="M5610 7904 c-13 -32 -13 -34 3 -34 7 0 14 13 15 30 3 37 -5 39 -18 4z"/>
<path d="M7125 7611 l-400 -6 -70 -38 c-86 -47 -126 -85 -171 -160 -47 -75
-73 -197 -57 -258 6 -23 9 -48 6 -55 -3 -7 -30 -18 -61 -24 -222 -43 -378
-124 -533 -279 -156 -157 -216 -283 -226 -474 -7 -124 9 -199 62 -307 87 -173
218 -289 380 -337 l30 -8 7 -107 c20 -328 135 -642 345 -947 95 -137 317 -356
453 -447 230 -154 437 -245 706 -313 250 -63 625 -72 874 -21 320 66 660 227
885 421 249 215 403 412 518 667 93 205 157 453 157 608 0 122 3 127 78 158
94 39 147 75 223 153 73 75 128 162 161 256 30 85 30 248 -1 361 -23 86 -74
187 -126 251 -52 64 -158 164 -216 202 -108 73 -297 147 -414 162 -46 6 -50 8
-47 31 2 14 4 61 5 105 2 74 -1 86 -35 157 -51 106 -103 159 -206 211 l-85 42
-921 1 c-507 0 -1101 -2 -1321 -5z m2201 -323 c70 -38 80 -107 29 -194 -30
-51 -45 -60 -175 -113 -204 -83 -258 -136 -304 -301 -20 -71 -46 -100 -91
-100 -45 0 -70 25 -88 88 -46 154 -144 238 -292 249 -137 12 -263 -72 -320
-213 -24 -59 -30 -58 -55 6 -50 127 -141 196 -278 207 -146 11 -266 -73 -316
-224 -30 -90 -52 -116 -97 -116 -44 0 -82 33 -97 84 -7 24 -19 67 -28 96 -19
67 -78 128 -164 169 -36 18 -105 51 -155 75 -146 70 -190 134 -159 225 14 40
35 59 79 73 18 6 521 9 1255 8 1132 -2 1227 -3 1256 -19z m-2826 -507 c0 -5
-7 -14 -15 -21 -26 -21 -151 -212 -203 -310 -55 -103 -109 -255 -138 -387 -9
-46 -22 -83 -27 -83 -15 0 -96 75 -125 117 -51 70 -67 121 -66 203 0 64 6 87
32 143 67 144 210 252 427 322 75 25 115 30 115 16z m3329 -55 c124 -49 225
-127 291 -223 100 -146 105 -287 16 -412 -30 -42 -125 -125 -133 -117 -3 2
-11 37 -19 78 -47 231 -172 498 -315 670 -21 26 -39 51 -39 57 0 12 107 -17
199 -53z m-2943 -47 c40 -25 70 -70 90 -141 16 -55 80 -178 92 -178 4 0 19
-11 33 -24 46 -43 129 -78 195 -84 117 -9 215 30 301 121 40 42 55 69 77 133
36 110 48 124 94 120 88 -7 98 -29 107 -236 7 -163 16 -211 51 -257 34 -44 84
-59 155 -44 60 13 80 27 124 85 29 38 29 39 36 221 9 222 14 235 104 235 45 0
53 -9 83 -96 37 -104 71 -155 134 -202 120 -89 251 -103 386 -41 87 40 182
171 197 274 4 24 16 53 27 64 24 27 93 71 110 71 16 0 79 -59 115 -108 16 -20
34 -43 41 -50 25 -27 121 -199 160 -288 54 -122 78 -204 103 -348 18 -104 20
-147 16 -306 -5 -153 -10 -202 -31 -281 -28 -109 -87 -273 -122 -339 -237
-446 -733 -785 -1244 -850 -163 -20 -207 -22 -357 -11 -344 26 -592 103 -833
258 -369 239 -622 597 -702 996 -32 160 -32 434 0 591 54 257 155 467 327 675
56 68 76 74 131 40z"/>
<path d="M9310 6650 c6 -11 16 -20 22 -20 6 0 3 9 -7 20 -10 11 -20 20 -22 20
-2 0 1 -9 7 -20z"/>
<path d="M8320 6591 c0 -5 7 -12 16 -15 22 -9 24 -8 24 9 0 8 -9 15 -20 15
-11 0 -20 -4 -20 -9z"/>
<path d="M7743 6565 c-6 -14 -9 -25 -6 -25 7 0 32 33 33 43 0 16 -16 5 -27
-18z"/>
<path d="M9277 6568 c-3 -12 -2 -29 4 -37 8 -13 9 -12 4 6 -3 12 -1 24 4 28 6
3 8 0 5 -8 -3 -8 1 -19 9 -26 11 -9 17 -8 27 4 10 12 8 18 -11 35 -31 25 -35
25 -42 -2z"/>
<path d="M7775 6550 c-3 -5 -1 -10 4 -10 6 0 11 5 11 10 0 6 -2 10 -4 10 -3 0
-8 -4 -11 -10z"/>
<path d="M7752 6510 c0 -14 2 -19 5 -12 2 6 2 18 0 25 -3 6 -5 1 -5 -13z"/>
<path d="M9161 6514 c0 -11 3 -14 6 -6 3 7 2 16 -1 19 -3 4 -6 -2 -5 -13z"/>
<path d="M7732 6415 c0 -16 2 -22 5 -12 2 9 2 23 0 30 -3 6 -5 -1 -5 -18z"/>
<path d="M9335 6430 c3 -5 8 -10 11 -10 2 0 4 5 4 10 0 6 -5 10 -11 10 -5 0
-7 -4 -4 -10z"/>
<path d="M7736 6364 c-9 -22 -8 -24 9 -24 8 0 15 9 15 20 0 24 -15 27 -24 4z"/>
<path d="M9065 6350 c-3 -5 -1 -10 4 -10 6 0 11 5 11 10 0 6 -2 10 -4 10 -3 0
-8 -4 -11 -10z"/>
<path d="M9101 6344 c0 -11 3 -14 6 -6 3 7 2 16 -1 19 -3 4 -6 -2 -5 -13z"/>
<path d="M9251 6338 c-1 -10 -6 -18 -11 -18 -6 0 -19 -15 -30 -32 -11 -18 -20
-28 -20 -23 0 6 -5 2 -11 -8 -6 -10 -9 -21 -6 -23 8 -9 89 96 84 108 -3 8 -6
6 -6 -4z"/>
<path d="M7735 6290 c3 -5 8 -10 11 -10 2 0 4 5 4 10 0 6 -5 10 -11 10 -5 0
-7 -4 -4 -10z"/>
<path d="M7742 6240 c0 -14 2 -19 5 -12 2 6 2 18 0 25 -3 6 -5 1 -5 -13z"/>
<path d="M8920 6245 c0 -9 5 -15 11 -13 6 2 11 8 11 13 0 5 -5 11 -11 13 -6 2
-11 -4 -11 -13z"/>
<path d="M9135 6250 c3 -5 8 -10 11 -10 2 0 4 5 4 10 0 6 -5 10 -11 10 -5 0
-7 -4 -4 -10z"/>
<path d="M9145 6220 c-3 -5 -1 -10 4 -10 6 0 11 5 11 10 0 6 -2 10 -4 10 -3 0
-8 -4 -11 -10z"/>
<path d="M8371 6204 c0 -11 3 -14 6 -6 3 7 2 16 -1 19 -3 4 -6 -2 -5 -13z"/>
<path d="M7525 6190 c-3 -5 -2 -10 4 -10 5 0 13 5 16 10 3 6 2 10 -4 10 -5 0
-13 -4 -16 -10z"/>
<path d="M8900 6170 c0 -5 9 -10 20 -10 11 0 20 5 20 10 0 6 -9 10 -20 10 -11
0 -20 -4 -20 -10z"/>
<path d="M8331 6134 c0 -11 3 -14 6 -6 3 7 2 16 -1 19 -3 4 -6 -2 -5 -13z"/>
<path d="M7831 6114 c0 -11 3 -14 6 -6 3 7 2 16 -1 19 -3 4 -6 -2 -5 -13z"/>
<path d="M7781 6110 c0 -8 4 -22 9 -30 12 -18 12 -2 0 25 -6 13 -9 15 -9 5z"/>
<path d="M8340 6095 c0 -8 2 -15 4 -15 2 0 6 7 10 15 3 8 1 15 -4 15 -6 0 -10
-7 -10 -15z"/>
<path d="M8308 6082 c-10 -2 -18 -10 -18 -18 0 -8 -5 -14 -11 -14 -6 0 -8 -7
-5 -16 3 -9 2 -12 -5 -9 -15 10 -48 -23 -65 -64 -11 -27 -17 -31 -28 -22 -11
9 -16 9 -21 0 -4 -6 -2 -15 6 -19 27 -17 174 112 167 147 -2 11 -10 17 -20 15z
m-38 -76 c0 -3 -4 -8 -10 -11 -5 -3 -10 -1 -10 4 0 6 5 11 10 11 6 0 10 -2 10
-4z"/>
<path d="M7815 6040 c10 -11 20 -20 23 -20 3 0 -3 9 -13 20 -10 11 -20 20 -23
20 -3 0 3 -9 13 -20z"/>
<path d="M8183 5992 c-8 -5 -9 -13 -3 -22 7 -12 10 -12 16 3 8 21 3 29 -13 19z"/>
<path d="M7182 5816 c-124 -57 -186 -189 -149 -317 33 -110 126 -179 242 -178
73 0 121 16 174 58 43 34 86 113 97 177 12 80 -58 204 -139 246 -54 28 -177
35 -225 14z"/>
<path d="M8748 5815 c-63 -23 -106 -64 -138 -128 -35 -71 -39 -128 -13 -201
21 -58 79 -121 136 -147 56 -25 158 -25 212 0 56 25 129 109 145 166 33 117
-20 243 -124 297 -51 26 -167 33 -218 13z"/>
<path d="M7757 5424 c-37 -20 -47 -50 -36 -107 14 -79 70 -162 130 -193 36
-18 126 -18 159 1 32 19 61 19 96 0 78 -41 187 -4 242 82 79 123 72 223 -15
223 -34 0 -83 -36 -83 -60 0 -6 -10 -34 -21 -61 -19 -44 -25 -50 -48 -47 -19
2 -31 14 -46 44 -28 59 -44 74 -74 74 -36 0 -45 -8 -75 -67 -21 -42 -31 -53
-50 -53 -29 0 -36 9 -65 85 -23 59 -52 95 -75 95 -6 -1 -24 -8 -39 -16z"/>
<path d="M9470 5281 c0 -5 7 -11 15 -15 12 -4 13 -11 5 -31 -15 -39 -12 -55
10 -55 29 0 38 62 13 87 -22 20 -43 27 -43 14z"/>
<path d="M9416 5121 c-4 -7 -5 -15 -2 -18 9 -9 19 4 14 18 -4 11 -6 11 -12 0z"/>
<path d="M9390 5065 c0 -9 9 -15 21 -15 18 0 19 2 9 15 -7 8 -16 15 -21 15 -5
0 -9 -7 -9 -15z"/>
<path d="M9346 5045 c-9 -26 -7 -32 5 -12 6 10 9 21 6 23 -2 3 -7 -2 -11 -11z"/>
<path d="M9440 5046 c0 -9 5 -16 10 -16 6 0 10 4 10 9 0 6 -4 13 -10 16 -5 3
-10 -1 -10 -9z"/>
<path d="M9383 5019 c-18 -5 -33 -16 -33 -24 0 -8 -4 -15 -10 -15 -5 0 -10 -4
-10 -10 0 -18 18 -11 25 10 5 15 12 18 36 13 25 -5 29 -2 29 16 0 11 -1 21 -2
20 -2 0 -18 -5 -35 -10z"/>
<path d="M9451 4924 c0 -11 3 -14 6 -6 3 7 2 16 -1 19 -3 4 -6 -2 -5 -13z"/>
<path d="M9265 4881 c4 -12 2 -21 -4 -21 -15 0 -14 -29 2 -44 10 -10 12 -4 14
31 1 23 -3 46 -9 49 -6 4 -8 -1 -3 -15z"/>
<path d="M9230 4860 c-6 -12 -9 -24 -7 -27 3 -2 11 5 17 17 6 12 9 24 7 27 -3
2 -11 -5 -17 -17z"/>
<path d="M9197 4823 c-4 -3 -7 -11 -7 -17 0 -6 5 -5 12 2 6 6 9 14 7 17 -3 3
-9 2 -12 -2z"/>
<path d="M9230 4794 c0 -8 5 -12 10 -9 6 4 8 11 5 16 -9 14 -15 11 -15 -7z"/>
<path d="M9170 4779 c0 -5 5 -7 10 -4 6 3 10 8 10 11 0 2 -4 4 -10 4 -5 0 -10
-5 -10 -11z"/>
<path d="M9193 4765 c-3 -9 -3 -19 1 -22 3 -4 6 1 6 11 0 9 5 14 10 11 6 -3
10 -1 10 4 0 17 -20 13 -27 -4z"/>
<path d="M9147 4754 c-8 -9 21 -44 37 -44 6 0 4 6 -5 13 -9 7 -18 18 -20 25
-2 7 -8 10 -12 6z"/>
<path d="M9120 4721 c0 -25 6 -27 13 -6 4 8 2 17 -3 20 -6 4 -10 -3 -10 -14z"/>
<path d="M9097 4703 c-10 -9 -9 -53 2 -53 6 0 11 60 5 60 0 0 -4 -3 -7 -7z"/>
<path d="M9042 4648 c-19 -16 -31 -32 -29 -35 3 -3 21 9 39 25 42 40 33 49
-10 10z"/>
<path d="M8986 4592 c-4 -7 -2 -12 3 -12 6 0 11 -7 11 -15 0 -8 4 -15 10 -15
12 0 34 40 26 48 -3 3 -6 0 -6 -6 0 -16 -27 -15 -32 0 -3 9 -6 9 -12 0z"/>
<path d="M9120 4574 c0 -8 5 -12 10 -9 6 3 10 10 10 16 0 5 -4 9 -10 9 -5 0
-10 -7 -10 -16z"/>
<path d="M8750 4410 c-12 -8 -10 -10 8 -10 13 0 20 4 17 10 -7 12 -6 12 -25 0z"/>
<path d="M5372 7593 c-20 -8 -42 -59 -42 -96 0 -56 53 -87 115 -67 41 13 55
35 55 83 0 51 -33 87 -78 86 -20 0 -43 -3 -50 -6z m43 -47 c-4 -20 -2 -36 4
-40 7 -5 11 2 11 18 0 14 5 26 11 26 7 0 9 -8 4 -22 -3 -13 -9 -33 -12 -46 -7
-30 -22 -24 -44 18 -13 24 -15 37 -8 46 6 7 8 18 4 24 -3 6 3 10 15 10 18 0
20 -4 15 -34z"/>
<path d="M10665 7545 c-17 -16 -25 -35 -25 -60 0 -38 35 -85 64 -85 50 0 106
46 106 87 0 27 -17 64 -34 75 -25 17 -87 8 -111 -17z"/>
<path d="M5167 7162 c-30 -33 -32 -76 -5 -105 37 -41 63 -43 98 -8 37 36 40
81 8 111 -27 25 -79 26 -101 2z"/>
<path d="M10861 7161 c-11 -11 -23 -37 -27 -57 -6 -33 -4 -40 20 -61 44 -38
93 -27 121 27 36 70 -59 146 -114 91z m43 -56 c-4 -8 -8 -15 -10 -15 -2 0 -4
7 -4 15 0 8 4 15 10 15 5 0 7 -7 4 -15z"/>
<path d="M5055 6735 c-62 -61 9 -170 90 -139 36 14 57 93 32 125 -33 43 -87
50 -122 14z m65 -40 c0 -8 -4 -15 -10 -15 -5 0 -10 7 -10 15 0 8 5 15 10 15 6
0 10 -7 10 -15z"/>
<path d="M10953 6724 c-22 -22 -24 -31 -19 -67 9 -54 27 -71 73 -70 47 1 83
39 83 87 0 70 -85 102 -137 50z"/>
<path d="M5280 6629 c-13 -23 1 -49 26 -49 17 0 48 46 39 60 -11 18 -54 11
-65 -11z"/>
<path d="M10790 6610 c0 -39 25 -50 52 -22 28 27 17 52 -22 52 -27 0 -30 -3
-30 -30z"/>
<path d="M5005 6265 c-40 -39 -32 -96 16 -120 39 -20 62 -19 94 7 24 19 27 26
22 66 -6 53 -26 72 -74 72 -23 0 -42 -8 -58 -25z m95 -22 c-1 -21 -13 -53 -21
-53 -10 0 -12 43 -2 53 9 9 23 9 23 0z m-60 -28 c0 -18 -4 -23 -15 -19 -16 6
-20 26 -8 37 13 14 23 6 23 -18z"/>
<path d="M5246 6264 c-30 -29 -31 -64 -4 -90 24 -24 25 -25 47 -7 29 23 32 80
6 99 -24 18 -30 17 -49 -2z"/>
<path d="M11029 6273 c-9 -2 -21 -15 -28 -29 -29 -65 2 -119 69 -119 32 0 47
6 61 24 25 30 25 92 1 114 -17 16 -65 21 -103 10z m69 -55 c-4 -27 -28 -36
-28 -10 0 20 8 32 22 32 5 0 8 -10 6 -22z m-52 -25 c-11 -11 -19 6 -11 24 8
17 8 17 12 0 3 -10 2 -21 -1 -24z"/>
<path d="M10836 6251 c-12 -13 -16 -32 -14 -58 3 -33 6 -38 31 -41 23 -3 30 2
42 32 16 39 12 62 -16 76 -23 13 -23 13 -43 -9z"/>
<path d="M5285 5851 c-6 -20 3 -51 15 -51 4 0 18 8 31 19 20 16 21 21 10 35
-18 22 -48 20 -56 -3z"/>
<path d="M5056 5844 c-21 -20 -21 -93 0 -122 23 -33 68 -29 106 8 25 26 29 36
24 62 -3 18 -14 40 -23 50 -20 23 -85 24 -107 2z m74 -43 c0 -5 -7 -14 -15
-21 -12 -10 -15 -10 -15 2 0 8 3 18 7 21 9 10 23 9 23 -2z"/>
<path d="M10799 5824 c-16 -20 0 -49 27 -49 19 0 47 42 38 57 -9 14 -51 9 -65
-8z"/>
<path d="M10988 5825 c-55 -30 -44 -119 17 -147 46 -21 112 46 100 102 -12 54
-63 74 -117 45z"/>
<path d="M5170 5471 c-46 -24 -58 -59 -40 -114 15 -41 16 -42 65 -45 40 -2 55
1 73 18 40 38 41 101 2 140 -25 25 -55 25 -100 1z"/>
<path d="M10874 5442 c-40 -26 -43 -91 -6 -132 23 -26 32 -30 59 -24 17 3 41
15 52 25 42 39 39 113 -5 129 -30 12 -84 13 -100 2z m99 -40 c11 -5 -50 -62
-66 -62 -17 0 -38 36 -31 54 4 11 19 15 48 14 22 0 45 -3 49 -6z"/>
<path d="M5385 5116 c-16 -8 -49 -30 -72 -51 -43 -36 -43 -37 -43 -105 0 -50
5 -73 18 -88 22 -27 109 -72 137 -72 31 0 83 19 128 47 l37 23 0 83 c0 45 -4
87 -8 92 -11 16 -84 63 -115 74 -36 14 -45 13 -82 -3z m80 -86 c22 -9 56 -44
73 -75 9 -17 3 -25 -45 -62 -31 -24 -61 -43 -69 -43 -16 0 -52 37 -60 62 -3
10 -9 18 -14 18 -5 0 -12 9 -15 20 -5 15 4 31 31 60 39 41 42 41 99 20z"/>
<path d="M10665 5113 c-16 -8 -50 -31 -74 -51 l-43 -35 4 -75 c3 -71 5 -76 38
-104 19 -16 55 -35 80 -42 53 -16 86 -6 157 47 l42 32 1 77 c0 75 -1 78 -32
101 -40 30 -113 67 -130 67 -7 -1 -26 -8 -43 -17z m104 -95 c16 -13 34 -34 41
-47 10 -21 7 -27 -19 -52 -17 -15 -31 -32 -31 -38 0 -6 -9 -15 -21 -21 -29
-16 -70 2 -109 48 -37 44 -34 73 13 115 38 33 81 31 126 -5z"/>
<path d="M5594 4591 c-88 -54 -49 -181 54 -181 35 0 68 23 87 60 23 44 18 73
-16 108 -37 38 -78 42 -125 13z"/>
<path d="M10437 4590 c-55 -43 -56 -116 -1 -159 48 -38 112 -21 140 37 43 92
-61 183 -139 122z m39 -107 c-11 -11 -17 4 -9 23 7 18 8 18 11 1 2 -10 1 -21
-2 -24z"/>
<path d="M6084 4207 c-27 -23 -91 -86 -141 -141 -104 -110 -114 -138 -67 -175
30 -23 23 -26 106 42 25 20 49 34 52 29 3 -5 1 -25 -5 -45 -19 -69 25 -96 109
-66 17 6 36 9 41 7 5 -1 -10 -32 -34 -68 -49 -71 -54 -98 -27 -123 26 -24 46
-21 79 12 64 64 201 246 209 279 9 32 -3 70 -24 76 -9 3 -64 -8 -122 -24 -57
-16 -106 -28 -108 -25 -2 2 3 25 11 52 34 109 39 144 22 169 -30 47 -48 47
-101 1z"/>
<path d="M9876 4119 c-72 -48 -106 -107 -106 -184 0 -50 5 -69 29 -106 38 -59
68 -85 120 -104 55 -19 76 -19 134 1 55 18 129 95 147 151 29 85 -10 186 -92
240 -33 22 -55 28 -112 31 -66 3 -74 1 -120 -29z m176 -122 c32 -24 39 -47 27
-92 -12 -41 -45 -66 -90 -67 -25 -1 -40 7 -66 35 -18 20 -33 47 -33 61 0 33
36 74 73 84 36 10 51 6 89 -21z"/>
<path d="M6491 3871 c-37 -47 -144 -208 -165 -250 -24 -45 -20 -67 18 -98 33
-25 192 -112 208 -113 4 0 17 18 28 40 23 46 27 40 -69 107 -30 21 -56 44 -59
51 -6 20 35 14 88 -13 27 -14 54 -25 60 -25 11 0 50 58 50 76 0 6 -25 28 -55
48 -57 38 -62 45 -44 63 9 9 26 4 69 -18 76 -39 98 -40 122 -8 16 22 18 30 9
48 -12 22 -189 131 -214 131 -9 0 -29 -18 -46 -39z"/>
<path d="M9485 3841 c-100 -36 -155 -74 -155 -109 0 -26 109 -217 168 -294 20
-27 44 -48 54 -48 42 0 172 111 204 173 38 72 11 183 -60 245 -60 53 -128 63
-211 33z m120 -133 c47 -44 53 -83 23 -128 -37 -54 -51 -50 -97 29 -23 38 -41
76 -41 85 0 15 44 45 68 46 7 0 28 -15 47 -32z"/>
<path d="M6836 3682 c-36 -57 -142 -273 -150 -304 -8 -36 9 -51 118 -104 109
-53 134 -55 159 -13 17 30 17 33 0 51 -10 11 -45 34 -78 50 -33 17 -61 31 -63
33 -1 1 28 64 65 140 l67 138 -28 23 c-39 34 -62 30 -90 -14z"/>
<path d="M9044 3629 c-17 -19 -19 -41 -22 -235 l-3 -214 39 0 c45 0 56 10 74
65 12 36 18 40 76 58 56 18 67 19 105 6 50 -17 66 -14 89 12 16 18 16 24 4 47
-16 29 -225 239 -266 266 -34 22 -73 20 -96 -5z m117 -179 c28 -15 25 -52 -3
-48 -17 2 -24 11 -26 31 -4 30 0 32 29 17z"/>
<path d="M7177 3572 c-18 -20 -49 -106 -98 -270 -24 -81 -28 -106 -19 -117 21
-26 122 -57 185 -57 71 0 118 18 164 63 44 44 61 86 61 151 -1 104 -62 183
-174 224 -80 29 -98 30 -119 6z m164 -199 c13 -40 -3 -98 -31 -113 -10 -6 -39
-10 -64 -10 -56 0 -57 5 -21 110 34 101 41 107 76 74 16 -15 33 -42 40 -61z"/>
<path d="M8625 3521 c-78 -22 -85 -27 -85 -60 0 -35 44 -244 68 -326 17 -55
20 -60 49 -63 22 -2 38 3 52 17 23 23 26 46 11 87 -16 42 -7 55 30 43 17 -6
36 -19 43 -28 25 -33 79 -71 103 -71 31 0 57 39 48 74 -4 17 -22 36 -51 53
-48 28 -47 24 -22 110 12 38 11 47 -12 94 -39 85 -110 106 -234 70z m119 -119
c9 -15 -19 -57 -40 -60 -25 -4 -40 34 -22 55 12 14 54 18 62 5z"/>
<path d="M7697 3465 c-81 -31 -138 -96 -152 -175 -8 -47 11 -127 41 -171 55
-80 179 -113 262 -70 47 25 97 73 118 113 26 50 15 156 -22 215 -50 80 -162
120 -247 88z m130 -140 c26 -18 38 -78 23 -114 -12 -30 -57 -61 -88 -61 -31 0
-85 43 -93 73 -8 31 3 72 28 99 20 23 100 24 130 3z"/>
<path d="M8325 3464 c-12 -12 -15 -27 -11 -53 3 -20 8 -82 12 -137 6 -98 5
-102 -17 -118 -13 -9 -34 -16 -46 -16 -39 0 -50 35 -58 173 -6 109 -10 129
-25 137 -30 16 -58 12 -81 -11 -21 -21 -21 -28 -15 -139 11 -191 45 -255 148
-271 66 -11 118 3 162 41 56 50 61 72 48 239 -10 116 -16 149 -29 159 -24 17
-69 15 -88 -4z"/>
</g>
</svg>
